<?xml version="1.0" encoding="UTF-8" standalone="no"?>
<!-- Generator: Adobe Illustrator 16.0.0, SVG Export Plug-In . SVG Version: 6.00 Build 0)  -->

<svg
   xmlns:dc="http://purl.org/dc/elements/1.1/"
   xmlns:cc="http://creativecommons.org/ns#"
   xmlns:rdf="http://www.w3.org/1999/02/22-rdf-syntax-ns#"
   xmlns:svg="http://www.w3.org/2000/svg"
   xmlns="http://www.w3.org/2000/svg"
   xmlns:sodipodi="http://sodipodi.sourceforge.net/DTD/sodipodi-0.dtd"
   xmlns:inkscape="http://www.inkscape.org/namespaces/inkscape"
   version="1.1"
   id="Layer_1"
   x="0px"
   y="0px"
   width="800"
   height="800"
   viewBox="0 0 800 800"
   enable-background="new 0 0 128 128"
   xml:space="preserve"
   sodipodi:docname="qgis-icon-white800.svg"
   inkscape:version="0.92.1 r15371"><metadata
     id="metadata4496"><rdf:RDF><cc:Work
         rdf:about=""><dc:format>image/svg+xml</dc:format><dc:type
           rdf:resource="http://purl.org/dc/dcmitype/StillImage" /><dc:title></dc:title></cc:Work></rdf:RDF></metadata><defs
     id="defs4494" /><sodipodi:namedview
     pagecolor="#ffffff"
     bordercolor="#666666"
     borderopacity="1"
     objecttolerance="10"
     gridtolerance="10"
     guidetolerance="10"
     inkscape:pageopacity="0"
     inkscape:pageshadow="2"
     inkscape:window-width="1920"
     inkscape:window-height="1027"
     id="namedview4492"
     showgrid="false"
     inkscape:zoom="1"
     inkscape:cx="426"
     inkscape:cy="170"
     inkscape:window-x="1272"
     inkscape:window-y="-8"
     inkscape:window-maximized="1"
     inkscape:current-layer="Layer_1" /><g
     id="g4501"
     transform="matrix(5.880147,0,0,6.2397676,24.067502,-1.8940714)"
     style="fill:#ffffff;opacity:1;fill-opacity:0.37254903"><polygon
       id="polygon4485"
       points="86.891,69.625 71.697,54.625 52.613,54.625 52.613,72.746 68.613,88.548 68.613,69.625 "
       style="fill:#ffffff;fill-opacity:0.37254903" /><polygon
       id="polygon4487"
       points="94.488,77.625 76.613,77.625 76.613,96.033 107.143,126.625 126.613,126.625 126.613,109.057 "
       style="fill:#ffffff;fill-opacity:0.37254903" /><path
       id="path4489"
       d="m 68.923,101.552 c -1.165,0.242 -1.769,0.157 -4.685,0.157 -20.866,0 -38.612,-17.158 -38.612,-39.406 0,-22.248 17.551,-39.027 38.612,-39.027 21.061,0 37.833,16.78 37.833,39.027 0,3.619 -0.451,7.099 -1.284,10.398 L 120.1,92.012 c 4.979,-8.726 7.765,-18.869 7.765,-29.857 C 127.865,27.866 100.502,2.192 63.849,2.192 27.363,2.191 0,27.696 0,62.154 c 0,34.625 27.363,60.638 63.848,60.638 9.417,0 16.069,-1.469 23.042,-3.761 z"
       inkscape:connector-curvature="0"
       style="fill:#ffffff;fill-opacity:0.37254903" /></g></svg>