<?xml version="1.0" encoding="UTF-8" standalone="no"?>
<!-- Generator: Adobe Illustrator 16.0.0, SVG Export Plug-In . SVG Version: 6.00 Build 0)  -->

<svg
   xmlns:dc="http://purl.org/dc/elements/1.1/"
   xmlns:cc="http://creativecommons.org/ns#"
   xmlns:rdf="http://www.w3.org/1999/02/22-rdf-syntax-ns#"
   xmlns:svg="http://www.w3.org/2000/svg"
   xmlns="http://www.w3.org/2000/svg"
   xmlns:sodipodi="http://sodipodi.sourceforge.net/DTD/sodipodi-0.dtd"
   xmlns:inkscape="http://www.inkscape.org/namespaces/inkscape"
   version="1.1"
   id="Layer_1"
   x="0px"
   y="0px"
   width="722.569px"
   height="346.291px"
   viewBox="0 0 722.569 346.291"
   enable-background="new 0 0 722.569 346.291"
   xml:space="preserve"
   sodipodi:docname="qgis-logo-monochrome_white.svg"
   inkscape:version="0.92.1 r15371"><metadata
     id="metadata4504"><rdf:RDF><cc:Work
         rdf:about=""><dc:format>image/svg+xml</dc:format><dc:type
           rdf:resource="http://purl.org/dc/dcmitype/StillImage" /><dc:title></dc:title></cc:Work></rdf:RDF></metadata><defs
     id="defs4502" /><sodipodi:namedview
     pagecolor="#ffffff"
     bordercolor="#666666"
     borderopacity="1"
     objecttolerance="10"
     gridtolerance="10"
     guidetolerance="10"
     inkscape:pageopacity="0"
     inkscape:pageshadow="2"
     inkscape:window-width="1920"
     inkscape:window-height="1027"
     id="namedview4500"
     showgrid="false"
     inkscape:zoom="2.0094968"
     inkscape:cx="361.28448"
     inkscape:cy="173.14549"
     inkscape:window-x="1272"
     inkscape:window-y="-8"
     inkscape:window-maximized="1"
     inkscape:current-layer="Layer_1" /><g
     id="g4497"
     style="fill:#ffffff"><polygon
       fill="#589632"
       points="195,180 216.513,180 198.306,162 176,162 176,183.433 195,202.37  "
       id="polygon4485"
       style="fill:#ffffff" /><path
       fill="#589632"
       d="M414.246,171.135v54.35c-14.951,10.911-37.782,18.386-57.38,18.386c-42.833,0-75.362-31.113-75.362-72.129   c0-40.813,33.135-71.725,77.182-71.725c21.013,0,42.427,8.082,56.773,20.608l-17.982,22.832   c-10.507-9.698-25.052-15.76-38.791-15.76c-25.055,0-44.451,19.194-44.451,44.045c0,25.053,19.599,44.249,44.651,44.249   c8.486,0,18.589-3.031,27.681-7.678v-37.177H414.246z"
       id="path4487"
       style="fill:#ffffff" /><path
       fill="#589632"
       d="M442.129,242.456v-141.43h31.922v141.43H442.129z"
       id="path4489"
       style="fill:#ffffff" /><path
       fill="#589632"
       d="M610.831,114.967l-12.324,26.467c-14.951-8.89-32.731-14.547-44.045-14.547   c-10.708,0-17.981,3.839-17.981,11.517c0,26.064,75.362,11.517,75.16,62.431c0,27.68-24.045,42.631-55.36,42.631   c-23.236,0-46.471-8.89-62.431-22.427l12.728-26.063c14.548,12.932,35.155,21.215,50.106,21.215   c13.134,0,21.013-4.849,21.013-13.537c0-26.669-75.362-11.112-75.362-61.219c0-25.659,22.023-41.823,54.755-41.823   C576.89,99.611,596.689,105.673,610.831,114.967z"
       id="path4491"
       style="fill:#ffffff" /><polygon
       fill="#589632"
       points="264,226.946 225.617,189 204,189 204,211.34 240.782,248 264,248  "
       id="polygon4493"
       style="fill:#ffffff" /><path
       fill="#589632"
       d="M198.052,216.864c-3.259,0.75-6.648,1.157-10.144,1.157c-25.005,0-46.271-20.562-46.271-47.222   s21.032-46.769,46.271-46.769c25.239,0,45.336,20.108,45.336,46.769c0,4.336-0.54,8.508-1.539,12.46l23.144,23.14   c5.967-10.455,9.305-22.611,9.305-35.778c0-41.09-32.791-71.856-76.714-71.856c-43.722,0-76.512,30.564-76.512,71.856   c0,41.494,32.791,72.666,76.512,72.666c11.287,0,21.835-2.076,31.284-5.854L198.052,216.864z"
       id="path4495"
       style="fill:#ffffff" /></g></svg>