<?xml version="1.0" encoding="UTF-8" standalone="no"?>
<!-- Created with Inkscape (http://www.inkscape.org/) -->

<svg
   width="638.1167"
   height="139.11287"
   viewBox="0 0 168.83504 36.806946"
   version="1.1"
   id="svg8"
   sodipodi:docname="hfcQGIS_original.svg"
   inkscape:version="1.1 (c68e22c387, 2021-05-23)"
   inkscape:export-filename="H:\GitHub - Clone\OpenDataSicilia\HfcQGIS-md\docs\img\hfc_socialcard.png"
   inkscape:export-xdpi="111.36"
   inkscape:export-ydpi="111.36"
   xmlns:inkscape="http://www.inkscape.org/namespaces/inkscape"
   xmlns:sodipodi="http://sodipodi.sourceforge.net/DTD/sodipodi-0.dtd"
   xmlns="http://www.w3.org/2000/svg"
   xmlns:svg="http://www.w3.org/2000/svg"
   xmlns:rdf="http://www.w3.org/1999/02/22-rdf-syntax-ns#"
   xmlns:cc="http://creativecommons.org/ns#"
   xmlns:dc="http://purl.org/dc/elements/1.1/">
  <defs
     id="defs2">
    <linearGradient
       id="linearGradient3633"
       inkscape:swatch="solid">
      <stop
         style="stop-color:#ffff00;stop-opacity:1;"
         offset="0"
         id="stop3631" />
    </linearGradient>
    <linearGradient
       id="SVGID_1_"
       gradientUnits="userSpaceOnUse"
       x1="350.02249"
       y1="247.7832"
       x2="347.78201"
       y2="100.4837"
       gradientTransform="matrix(0.26458333,0,0,0.26458333,-117.11497,215.17431)">
      <stop
         offset="0"
         style="stop-color:#589632"
         id="stop6" />
      <stop
         offset="1"
         style="stop-color:#93B023"
         id="stop8" />
    </linearGradient>
    <linearGradient
       id="SVGID_2_"
       gradientUnits="userSpaceOnUse"
       x1="459.22171"
       y1="246.1226"
       x2="456.98129"
       y2="98.822403"
       gradientTransform="matrix(0.26458333,0,0,0.26458333,-117.11497,215.17431)">
      <stop
         offset="0"
         style="stop-color:#589632"
         id="stop13" />
      <stop
         offset="1"
         style="stop-color:#93B023"
         id="stop15" />
    </linearGradient>
    <linearGradient
       id="SVGID_3_"
       gradientUnits="userSpaceOnUse"
       x1="553.50677"
       y1="244.6875"
       x2="551.26642"
       y2="97.388199"
       gradientTransform="matrix(0.26458333,0,0,0.26458333,-117.11497,215.17431)">
      <stop
         offset="0"
         style="stop-color:#589632"
         id="stop20" />
      <stop
         offset="1"
         style="stop-color:#93B023"
         id="stop22" />
    </linearGradient>
    <linearGradient
       id="SVGID_4_"
       gradientUnits="userSpaceOnUse"
       x1="234.4702"
       y1="250.03419"
       x2="232.211"
       y2="101.4977">
      <stop
         offset="0"
         style="stop-color:#589632"
         id="stop27" />
      <stop
         offset="1"
         style="stop-color:#93B023"
         id="stop29" />
    </linearGradient>
    <linearGradient
       id="SVGID_5_"
       gradientUnits="userSpaceOnUse"
       x1="188.7529"
       y1="250.2354"
       x2="186.5125"
       y2="102.9362"
       gradientTransform="matrix(0.26458333,0,0,0.26458333,-117.11497,215.17431)">
      <stop
         offset="0"
         style="stop-color:#589632"
         id="stop36" />
      <stop
         offset="1"
         style="stop-color:#93B023"
         id="stop38" />
    </linearGradient>
  </defs>
  <sodipodi:namedview
     id="base"
     pagecolor="#ffffff"
     bordercolor="#666666"
     borderopacity="1.0"
     inkscape:pageopacity="0.0"
     inkscape:pageshadow="2"
     inkscape:zoom="1.1417536"
     inkscape:cx="349.90036"
     inkscape:cy="104.66356"
     inkscape:document-units="mm"
     inkscape:current-layer="layer1"
     showgrid="false"
     fit-margin-top="0"
     fit-margin-left="0"
     fit-margin-right="0"
     fit-margin-bottom="0"
     showguides="true"
     inkscape:guide-bbox="true"
     units="px"
     inkscape:window-width="2493"
     inkscape:window-height="1057"
     inkscape:window-x="59"
     inkscape:window-y="-8"
     inkscape:window-maximized="1"
     inkscape:pagecheckerboard="0" />
  <metadata
     id="metadata5">
    <rdf:RDF>
      <cc:Work
         rdf:about="">
        <dc:format>image/svg+xml</dc:format>
        <dc:type
           rdf:resource="http://purl.org/dc/dcmitype/StillImage" />
      </cc:Work>
    </rdf:RDF>
  </metadata>
  <g
     inkscape:label="Livello 1"
     inkscape:groupmode="layer"
     id="layer1"
     transform="translate(-23.199636,-230.91815)"
     style="display:inline;opacity:0.99">
    <g
       id="g2291"
       transform="matrix(0.98076915,0,0,0.98076915,-0.39835797,33.219332)"
       style="display:inline"
       inkscape:label="logo"
       inkscape:export-filename="H:\GitHub - Clone\OpenDataSicilia\HfcQGIS-md\docs\img\hfc_socialcard.png"
       inkscape:export-xdpi="104.60966"
       inkscape:export-ydpi="104.60966">
      <text
         xml:space="preserve"
         style="font-style:normal;font-variant:normal;font-weight:normal;font-stretch:normal;font-size:38.9146px;line-height:125%;font-family:Trueno;-inkscape-font-specification:Trueno;letter-spacing:0px;word-spacing:0px;fill:#7da629;fill-opacity:1;stroke:none;stroke-width:0.264583px;stroke-linecap:butt;stroke-linejoin:miter;stroke-opacity:1"
         x="21.336679"
         y="230.76123"
         id="text50"><tspan
           sodipodi:role="line"
           id="tspan48"
           x="21.336679"
           y="230.76123"
           style="font-style:normal;font-variant:normal;font-weight:bold;font-stretch:normal;font-family:Trueno;-inkscape-font-specification:'Trueno Bold';fill:#000000;fill-opacity:1;stroke-width:0.264583px">H<tspan
   style="fill:#000000;stroke:#000000;stroke-width:0.264583px"
   id="tspan952">f</tspan>c<tspan
   style="fill:none;stroke-width:0.264583px"
   id="tspan40" /></tspan></text>
      <text
         xml:space="preserve"
         style="font-style:normal;font-weight:normal;font-size:1.18098px;line-height:0%;font-family:sans-serif;letter-spacing:0px;word-spacing:0px;fill:#000000;fill-opacity:1;stroke:none;stroke-width:0.282222"
         x="128.26559"
         y="237.9845"
         id="text3022"><tspan
           sodipodi:role="line"
           id="tspan3024"
           x="128.26559"
           y="237.9845"
           style="font-style:normal;font-variant:normal;font-weight:normal;font-stretch:normal;font-size:5.9394px;line-height:1.25;font-family:'Courier New';-inkscape-font-specification:'Courier New';stroke-width:0.282222">by @opendatasicilia</tspan></text>
      <text
         xml:space="preserve"
         style="font-style:normal;font-variant:normal;font-weight:normal;font-stretch:normal;font-size:6.02273px;line-height:125%;font-family:Trueno;-inkscape-font-specification:Trueno;letter-spacing:0px;word-spacing:0px;fill:#000000;fill-opacity:1;stroke:none;stroke-width:0.254818px;stroke-linecap:butt;stroke-linejoin:miter;stroke-opacity:1"
         x="24.388174"
         y="237.89233"
         id="text960"><tspan
           sodipodi:role="line"
           id="tspan958"
           x="24.388174"
           y="237.89233"
           style="font-style:normal;font-variant:normal;font-weight:bold;font-stretch:normal;font-family:Trueno;-inkscape-font-specification:'Trueno Bold';stroke-width:0.254818px">Help field calculator</tspan></text>
      <text
         xml:space="preserve"
         style="font-style:normal;font-variant:normal;font-weight:normal;font-stretch:normal;font-size:6.02273px;line-height:125%;font-family:Trueno;-inkscape-font-specification:Trueno;letter-spacing:0px;word-spacing:0px;opacity:0.99;fill:#ffffff;fill-opacity:1;stroke:none;stroke-width:0.254818px;stroke-linecap:butt;stroke-linejoin:miter;stroke-opacity:1"
         x="-230.02365"
         y="29.703169"
         id="text960-4"
         transform="rotate(-90)"><tspan
           sodipodi:role="line"
           id="tspan958-8"
           x="-230.02365"
           y="29.703169"
           style="font-style:normal;font-variant:normal;font-weight:bold;font-stretch:normal;font-family:Trueno;-inkscape-font-specification:'Trueno Bold';fill:#ffffff;stroke-width:0.254818px">Dal 2018</tspan></text>
    </g>
    <g
       id="g1110"
       transform="matrix(0.74763722,0,0,0.74763722,158.60397,50.761674)">
      <polygon
         fill="#ee7913"
         points="176,162 176,183.433 195,202.37 195,180 216.513,180 198.306,162 "
         id="polygon3"
         transform="matrix(0.26458333,0,0,0.26458333,-117.11497,215.17431)" />
      <path
         fill="url(#SVGID_1_)"
         d="m -7.5123839,260.45378 v 14.3801 c -3.9557851,2.88687 -9.9964871,4.86463 -15.1817911,4.86463 -11.332898,0 -19.939529,-8.23198 -19.939529,-19.08413 0,-10.79844 8.766968,-18.97724 20.42107,-18.97724 5.55969,0 11.225477,2.13836 15.0211897,5.45253 l -4.7577377,6.04097 c -2.779977,-2.56593 -6.628341,-4.16983 -10.263452,-4.16983 -6.629135,0 -11.760993,5.07841 -11.760993,11.65357 0,6.62861 5.185568,11.70755 11.81391,11.70755 2.245254,0 4.918339,-0.80195 7.323931,-2.03147 v -9.83642 h 7.3234021 z"
         id="path10"
         style="fill:url(#SVGID_1_);stroke-width:0.264583" />
      <path
         fill="url(#SVGID_2_)"
         d="M -0.13500689,279.32413 V 241.90411 H 8.3110222 v 37.42002 z"
         id="path17"
         style="fill:url(#SVGID_2_);stroke-width:0.264583" />
      <path
         fill="url(#SVGID_3_)"
         d="m 44.50073,245.59266 -3.260725,7.00273 c -3.955785,-2.35215 -8.660077,-3.8489 -11.653573,-3.8489 -2.833158,0 -4.757473,1.01574 -4.757473,3.04721 0,6.8961 19.939529,3.04721 19.886084,16.5182 0,7.32367 -6.361907,11.27946 -14.647334,11.27946 -6.147858,0 -12.295452,-2.35215 -16.518201,-5.93382 l 3.367616,-6.89583 c 3.849158,3.42159 9.301427,5.61313 13.257212,5.61313 3.475038,0 5.55969,-1.28296 5.55969,-3.58166 0,-7.05617 -19.939529,-2.94005 -19.939529,-16.19753 0,-6.78894 5.826919,-11.06567 14.48726,-11.06567 5.23875,-2.6e-4 10.477236,1.60364 14.218973,4.06268 z"
         id="path24"
         style="fill:url(#SVGID_3_);stroke-width:0.264583" />
      <polygon
         fill="url(#SVGID_4_)"
         points="204,211.34 240.782,248 264,248 264,226.946 225.617,189 204,189 "
         id="polygon31"
         style="fill:url(#SVGID_4_)"
         transform="matrix(0.26458333,0,0,0.26458333,-117.11497,215.17431)" />
      <polygon
         fill="#f0e64a"
         points="195,180 195,202.37 204,211.34 204,189 225.617,189 216.513,180 "
         id="polygon33"
         transform="matrix(0.26458333,0,0,0.26458333,-117.11497,215.17431)" />
      <path
         fill="url(#SVGID_5_)"
         d="m -64.713712,272.55291 c -0.862277,0.19844 -1.75895,0.30612 -2.683934,0.30612 -6.615906,0 -12.242535,-5.44036 -12.242535,-12.49415 0,-7.05379 5.564717,-12.3743 12.242535,-12.3743 6.677819,0 11.99515,5.32024 11.99515,12.3743 0,1.14723 -0.142875,2.25107 -0.407194,3.29671 l 6.123517,6.12245 c 1.578769,-2.76621 2.461948,-5.98249 2.461948,-9.46626 0,-10.87173 -8.675952,-19.0119 -20.297246,-19.0119 -11.568112,0 -20.243799,8.08673 -20.243799,19.0119 0,10.97862 8.675952,19.22621 20.243799,19.22621 2.986352,0 5.777177,-0.54927 8.277225,-1.54887 z"
         id="path40"
         style="fill:url(#SVGID_5_);stroke-width:0.264583" />
      <path
         d="m -70.548304,258.03681 23.283333,22.75417 v -5.57072 l -10.155452,-10.0397 -2.408639,-2.38125 -4.817277,-4.7625 z"
         id="polygon4174"
         style="fill:#ffffff;fill-opacity:0.172549;stroke-width:0.264583"
         inkscape:connector-curvature="0"
         sodipodi:nodetypes="ccccccc" />
    </g>
  </g>
</svg>
